<?xml version="1.0" encoding="UTF-8"?>
<svg width="32px" height="32px" viewBox="0 0 32 32" version="1.1" xmlns="http://www.w3.org/2000/svg" xmlns:xlink="http://www.w3.org/1999/xlink">
    <!-- Generator: Sketch 61.2 (89653) - https://sketch.com -->
    <title>编组 4备份 3</title>
    <desc>Created with Sketch.</desc>
    <defs>
        <circle id="path-1" cx="16" cy="16" r="16"></circle>
        <path d="M0.78449628,6 C5.45116295,4 9.78449628,3 13.7844963,3 C19.7844963,3 23.7844963,6 27.7844963,8 C31.7844963,10 19.7844963,13 17.7844963,14 C15.7844963,15 9.78449628,16 6.78449628,15 C3.78449628,14 3.78449628,16 2.78449628,14 C2.11782961,12.6666667 1.45116295,10 0.78449628,6 Z" id="path-3"></path>
    </defs>
    <g id="页面-1" stroke="none" stroke-width="1" fill="none" fill-rule="evenodd">
        <g id="编组-4备份-3">
            <g id="路径-3">
                <mask id="mask-2" fill="white">
                    <use xlink:href="#path-1"></use>
                </mask>
                <use id="蒙版" fill="#FBF7EE" xlink:href="#path-1"></use>
                <g id="矩形" mask="url(#mask-2)">
                    <g transform="translate(2.000000, 22.469585)">
                        <g transform="translate(-0.000000, 0.000000)">
                            <path d="M10.7028905,0.589184658 L11,6.53041483 C15,6.53041483 17,6.53041483 17,6.53041483 C17,6.53041483 17.1362979,4.55000477 17.4088938,0.589184658 L10.7028905,0.589184658 Z" id="路径-4" fill="#F2C0A0"></path>
                            <mask id="mask-4" fill="white">
                                <use xlink:href="#path-3"></use>
                            </mask>
                            <use id="蒙版" fill="#3A9AF0" xlink:href="#path-3"></use>
                            <rect fill="#1C1353" mask="url(#mask-4)" x="10" y="3" width="7.94618324" height="8.53041483"></rect>
                            <path d="M10.7028905,0.589184658 L11,6.53041483 C15,6.53041483 17,6.53041483 17,6.53041483 C17,6.53041483 17.1362979,4.55000477 17.4088938,0.589184658 L10.7028905,0.589184658 Z" id="路径-4" fill="#F2C0A0" mask="url(#mask-4)"></path>
                            <polygon id="路径-7" fill="#FF4863" mask="url(#mask-4)" points="14 6.53041483 12 8.53041483 13 10.5304148 15 10.5304148 16 8.53041483"></polygon>
                            <polygon id="路径-5" fill="#332978" mask="url(#mask-4)" points="9.86464011 3.17741317 14.0558922 6.53041483 11.5411409 9.88341648 9.02638969 4.853914"></polygon>
                            <polygon id="路径-5" fill="#332978" mask="url(#mask-4)" transform="translate(16.570643, 6.530415) scale(-1, 1) translate(-16.570643, -6.530415) " points="14.8941426 3.17741317 19.0853947 6.53041483 16.5706434 9.88341648 14.0558922 4.853914"></polygon>
                            <polygon fill="#3A9AF0" mask="url(#mask-4)" points="4 2.53041483 10 2.94599706 10 10.5304148 7 10.5304148"></polygon>
                            <polygon id="矩形备份-14" fill="#3A9AF0" mask="url(#mask-4)" transform="translate(20.946183, 6.530415) scale(-1, 1) translate(-20.946183, -6.530415) " points="17.9461832 2.53041483 23.9461832 2.94599706 23.9461832 10.5304148 20.9461832 10.5304148"></polygon>
                        </g>
                    </g>
                </g>
            </g>
            <circle id="椭圆形" fill="#FFD8BF" cx="9.40318065" cy="18" r="2"></circle>
            <circle id="椭圆形备份-10" fill="#FFD8BF" cx="22.498979" cy="18" r="2"></circle>
            <rect id="矩形" fill="#FFD8BF" x="8.96572266" y="7" width="14" height="18" rx="7"></rect>
            <path d="M9.01826172,16.1916102 C10.3515951,15.5249435 11.3515951,14.5249435 12.0182617,13.1916102 C13.0182617,11.1916102 12.0182617,15.1916102 18.0182617,12.1916102 C24.0182617,9.19161016 18.0182617,15.1916102 23.0182617,16.1916102 C23.6849284,15.5249435 24.0182617,13.8582768 24.0182617,11.1916102 C24.6849284,9.19161016 24.0182617,8.19161016 22.0182617,8.19161016 C18.6727539,3.39720339 14.3333333,2.33333333 9,5 C9,5 4.01826172,8.19161016 9.01826172,11.1916102 C8.35159505,13.8582768 8.35159505,15.5249435 9.01826172,16.1916102 Z" id="路径-2" fill="#020753"></path>
        </g>
    </g>
</svg>