<?xml version="1.0" encoding="UTF-8"?>
<svg width="33px" height="32px" viewBox="0 0 33 32" version="1.1" xmlns="http://www.w3.org/2000/svg" xmlns:xlink="http://www.w3.org/1999/xlink">
    <!-- Generator: Sketch 61.2 (89653) - https://sketch.com -->
    <title>编组 5</title>
    <desc>Created with Sketch.</desc>
    <defs>
        <circle id="path-1" cx="16" cy="16" r="16"></circle>
        <path d="M0.582754743,3 C5.24942141,1 9.58275474,1.17239551e-13 13.5827547,1.17239551e-13 C19.5827547,1.17239551e-13 23.5827547,3 27.5827547,5 C31.5827547,7 19.5827547,10 17.5827547,11 C15.5827547,12 9.58275474,13 6.58275474,12 C3.58275474,11 3.58275474,13 2.58275474,11 C1.91608808,9.66666667 1.24942141,7 0.582754743,3 Z" id="path-3"></path>
        <rect id="path-5" x="0.238449929" y="0.836425781" width="14" height="18" rx="7"></rect>
    </defs>
    <g id="页面-1" stroke="none" stroke-width="1" fill="none" fill-rule="evenodd">
        <g id="编组-5" transform="translate(0.400716, 0.000000)">
            <g id="编组-8备份-5">
                <g id="编组-8备份-3">
                    <g id="路径-3备份">
                        <mask id="mask-2" fill="white">
                            <use xlink:href="#path-1"></use>
                        </mask>
                        <use id="蒙版" fill="#FBF7EE" xlink:href="#path-1"></use>
                        <rect id="矩形备份-15" fill="#3B1016" mask="url(#mask-2)" x="8.29936523" y="5.83642578" width="15.3327148" height="27.4857178" rx="7"></rect>
                        <g id="矩形" mask="url(#mask-2)">
                            <g transform="translate(2.000000, 20.469585)">
                                <g transform="translate(-0.000000, 0.000000)">
                                    <path d="M10.7028905,1.42561044 L11.5992839,12.5304148 C14.9326172,12.5304148 16.5992839,12.5304148 16.5992839,12.5304148 C16.5992839,12.5304148 16.8691538,8.82881337 17.4088938,1.42561044 L10.7028905,1.42561044 Z" id="路径-4" fill="#FFACAB"></path>
                                    <g id="路径-11" transform="translate(0.000000, 0.836426)">
                                        <g id="路径-11备份" transform="translate(0.201742, 3.000000)">
                                            <mask id="mask-4" fill="white">
                                                <use xlink:href="#path-3"></use>
                                            </mask>
                                            <use id="蒙版" fill="#FF4863" xlink:href="#path-3"></use>
                                        </g>
                                        <rect id="矩形" fill="#FBF7EE" x="9.94410782" y="4.69398905" width="7.94618324" height="7.26520741"></rect>
                                        <path d="M10.7028905,0.589184658 L11.5992839,6.95919646 C14.9326172,6.95919646 16.5992839,6.95919646 16.5992839,6.95919646 C16.5992839,6.95919646 16.8691538,4.83585919 17.4088938,0.589184658 L10.7028905,0.589184658 Z" id="路径-4" fill="#F2C0A0"></path>
                                        <polygon id="路径-5" fill="#FFFFFF" points="10.5992839 4.69398905 14 6.95919646 11.4852488 10.3121981 8.97049752 5.28269563"></polygon>
                                        <polygon id="路径-5" fill="#FFFFFF" transform="translate(16.514751, 7.503094) scale(-1, 1) translate(-16.514751, -7.503094) " points="15.4302186 4.69398905 19.0295025 6.95919646 16.5147512 10.3121981 14 5.28269563"></polygon>
                                        <polygon id="路径-11备份" fill="#FF4863" transform="translate(19.381104, 10.000000) scale(-1, 1) translate(-19.381104, -10.000000) " points="21.3811035 3 18.3811035 6 20.3811035 8 16.3811035 13 22.3811035 17 22.3811035 3"></polygon>
                                        <polygon fill="#FF4863" points="10.4852488 3 7.48524876 6 9.48524876 8 5.48524876 13 11.4852488 17 11.4852488 3"></polygon>
                                    </g>
                                </g>
                            </g>
                        </g>
                    </g>
                    <circle id="椭圆形备份-12" fill="#FFD8BF" cx="9.40318065" cy="16.8364258" r="2"></circle>
                    <circle id="椭圆形备份-13" fill="#FFD8BF" cx="22.498979" cy="16.8364258" r="2"></circle>
                    <g id="路径-8" transform="translate(8.727273, 5.000000)">
                        <mask id="mask-6" fill="white">
                            <use xlink:href="#path-5"></use>
                        </mask>
                        <use id="蒙版" fill="#FFD8BF" xlink:href="#path-5"></use>
                        <path d="M9.27272727,6.83642578 C6.60606061,8.83642578 3.60606061,9.83642578 0.272727273,9.83642578 C-3.06060606,9.83642578 -3.06060606,7.16975911 0.272727273,1.83642578 L5.27272727,0.836425781 L9.27272727,6.83642578 Z" fill="#3B1016" mask="url(#mask-6)"></path>
                        <path d="M9.27272727,6.83642578 C9.93939394,8.16975911 11.6060606,9.16975911 14.2727273,9.83642578 C18.2727273,10.8364258 16.2727273,2.83642578 16.2727273,1.83642578 C16.2727273,0.836425781 11.2727273,-5.16357422 10.2727273,-5.16357422 C9.27272727,-5.16357422 7.27272727,-5.16357422 6.27272727,-5.16357422 C5.60606061,-5.16357422 4.93939394,-3.16357422 4.27272727,0.836425781 L9.27272727,6.83642578 Z" id="路径-9" fill="#3B1016" mask="url(#mask-6)"></path>
                    </g>
                </g>
            </g>
        </g>
    </g>
</svg>