<svg width="32" height="32" viewBox="0 0 32 32" fill="none" xmlns="http://www.w3.org/2000/svg">
<circle cx="16" cy="16" r="16" fill="black" fill-opacity="0.3"/>
<path d="M13.6535 10.0592L22.785 15.3862C22.8504 15.4245 22.9047 15.4793 22.9424 15.5451C22.9802 15.6109 23 15.6854 23 15.7612C23 15.837 22.9802 15.9115 22.9424 15.9773C22.9047 16.0431 22.8504 16.0979 22.785 16.1362L13.6535 21.4632C13.5873 21.5018 13.5121 21.5222 13.4355 21.5224C13.3589 21.5226 13.2837 21.5025 13.2173 21.4642C13.151 21.4259 13.0959 21.3708 13.0578 21.3044C13.0196 21.238 12.9997 21.1626 13 21.086V10.4346C13 10.3582 13.0201 10.2831 13.0584 10.2169C13.0967 10.1507 13.1518 10.0958 13.2181 10.0577C13.2844 10.0197 13.3595 9.99974 13.436 10C13.5124 10.0003 13.5875 10.0207 13.6535 10.0592Z" fill="white"/>
</svg>
